<?xml version="1.0" encoding="UTF-8"?>
<svg version="1.1" fill="white
" viewBox="0 0 512 512" xmlns="http://www.w3.org/2000/svg">
<path transform="translate(295.05 20.699)" d="m0 0c0.65174-0.0056447 1.3035-0.011289 1.975-0.017105 2.0958-0.011944 4.1909-0.0058058 6.2867 0.0053864 0.71747 0.0021552 1.4349 0.0043103 2.1742 0.0065308 15.931 0.076956 29.968 2.0879 45.061 7.2361 3.401 1.1592 6.3901 2.0625 9.9792 2.4878 4.5013 0.75444 7.8869 2.573 11.848 4.7695 1.1167 0.6063 1.1167 0.6063 2.2559 1.2249 14.579 8.0073 14.579 8.0073 16.369 11.588l2.375 0.875c3.002 1.2866 3.7584 2.528 5.625 5.125 0.68062 0.33 1.3612 0.66 2.0625 1 1.9375 1 1.9375 1 2.8206 2.8079 1.3111 2.5731 2.8884 4.2225 4.9255 6.2664 0.74701 0.74959 1.494 1.4992 2.2637 2.2715 0.78053 0.77279 1.5611 1.5456 2.3652 2.3418 1.165 1.1766 1.165 1.1766 2.3535 2.377 1.1225 1.1186 1.1225 1.1186 2.2676 2.2598 1.0257 1.0223 1.0257 1.0223 2.072 2.0652 1.8785 1.8246 1.8785 1.8246 4.8694 2.6106 0.13664 0.56332 0.27328 1.1266 0.41406 1.707 0.85149 3.3322 2.7856 5.344 4.9609 7.9805 0.79148 0.97324 1.583 1.9465 2.3984 2.9492 2.0746 2.5758 2.0746 2.5758 5.2266 3.3633l1 3 2 1 0.4375 1.875c0.66887 2.5268 1.5838 3.4629 3.5625 5.125l2 1c0.2243 1.1389 0.2243 1.1389 0.45312 2.3008 0.59946 2.9588 1.5336 4.4645 3.2969 6.8867 13.579 19.718 17.423 45.662 13.897 69.166-1.083 4.9379-2.9673 9.2906-5.2212 13.787-1.4926 2.8258-1.4926 2.8258-2.4258 5.8594-0.99 0.33-1.98 0.66-3 1-0.67651 1.3284-1.3423 2.6622-2 4-4.4407 3.9508-8.9531 5.5588-14.824 5.8594-2.2102 0.088835-2.2102 0.088835-4.4648 0.63672-10.591 1.9687-21.242 0.60583-31.557-2.073-4.5154-1.1618-8.4528-1.5152-13.154-1.4231-3.4375-1-3.4375-1-6-2v-2c-4.6996-1.1012-7.603-0.82397-12.125 0.8125-1.0132 0.35707-2.0264 0.71414-3.0703 1.082-4.2033 1.6567-6.3586 2.5701-9.3047 6.1055-2.5 3-2.5 3-4.3828 3.8633-2.9293 1.5727-4.4444 3.7195-6.4922 6.3242-2.6479 3.3339-5.3007 6.6266-8.125 9.8125-2.6316 2.7874-2.6316 2.7874-3.5 6-0.99 0.33-1.98 0.66-3 1-2.5047 3.2203-2.5047 3.2203-2.7942 7.1526 1.0815 3.8774 2.6432 7.4709 4.2512 11.156 0.70787 1.6516 1.4155 3.3033 2.123 4.9551 1.1093 2.5745 2.2212 5.1479 3.3372 7.7195 9.0063 20.796 16.876 41.854 8.2078 64.329-1.8755 4.3129-3.9929 8.4968-6.125 12.688l-1 3c-0.59812 0.26812-1.1962 0.53625-1.8125 0.8125-2.4636 1.113-2.4636 1.113-4.0625 4.0625-3.1396 4.6171-6.7269 6.9254-12.125 8.125l-1 2c-1.9113 0.26884-3.8249 0.52747-5.7451 0.72266-3.5434 0.43582-6.935 1.3614-10.38 2.2773-8.8762 2.3332-16.837 3.1576-26 3.125-1.0648 0.0038672-2.1295 0.0077344-3.2266 0.011719-7.2624-0.0088136-14.423-0.4137-21.648-1.1367-1.0832-0.10695-1.0832-0.10695-2.1882-0.21606-3.3362-0.39415-4.9411-0.87015-7.8118-2.7839-2.6739-0.8913-5.2372-1.4773-8-2v-2l-3.3125-0.3125c-3.7721-0.70327-4.3307-0.99398-6.6875-3.6875-1.3199-0.38319-2.6567-0.70924-4-1-2.6667-0.66667-5.3333-1.3333-8-2-0.2475 0.63938-0.495 1.2788-0.75 1.9375l-1.25 2.0625-1.9375 0.4375c-2.3365 0.37969-2.3365 0.37969-3.5 3-1.9054 3.1248-3.2605 3.2417-6.5625 4.5625l-1.5 2.5c-1.5 2.5-1.5 2.5-3.7266 3.3047-3.6238 1.5618-5.9612 4.0219-8.6484 6.8203-0.49113 0.49629-0.98227 0.99258-1.4883 1.5039-2.7033 2.7595-5.2733 5.5975-7.7812 8.5352-5.394 6.2191-11.383 11.891-17.262 17.647-1.5419 1.5117-3.0776 3.0296-4.6125 4.5483-1.3628 1.3376-1.3628 1.3376-2.7532 2.7021-1.9612 2.1472-3.0266 3.843-4.2273 6.4385-1.9023 1.0742-1.9023 1.0742-4 2-4.3054 3.1573-7.4432 6.2699-10 11-1.6062 1.9554-2.3727 2.8756-4.8711 3.3711-2.6561 0.78464-3.8331 1.9656-5.7539 3.9414-0.59039 0.59426-1.1808 1.1885-1.7891 1.8008-1.6636 1.8083-1.6636 1.8083-2.5469 3.9922-1.3221 2.4106-2.5596 2.8002-5.0391 3.8945-3.4736 2.5473-6.4221 5.0221-8.625 8.75-1.375 2.25-1.375 2.25-3.8125 3.1875-3.5342 1.4654-4.494 3.9264-6.5625 7.0625-2.1875 0.6875-2.1875 0.6875-4 1l-1 3c-1.6265 1.3186-1.6265 1.3186-3.7109 2.6289-1.1254 0.7164-1.1254 0.7164-2.2734 1.4473-0.78891 0.49049-1.5778 0.98098-2.3906 1.4863-0.78117 0.49436-1.5623 0.98871-2.3672 1.498-1.4551 0.92063-2.9124 1.8378-4.3726 2.7502-1.6448 1.0375-3.2672 2.1105-4.8853 3.1892-1.9929 0.13525-1.9929 0.13525-4.2305-0.023438-0.80244-0.051562-1.6049-0.10312-2.4316-0.15625-1.2501-0.09668-1.2501-0.09668-2.5254-0.19531-0.84498-0.056719-1.69-0.11344-2.5605-0.17188-2.0847-0.14133-4.1684-0.29596-6.252-0.45312-0.65365-1.5384-1.2975-3.0809-1.9375-4.625-0.35965-0.85852-0.7193-1.717-1.0898-2.6016-0.48146-1.3729-0.48146-1.3729-0.97266-2.7734-0.3184-0.89074-0.6368-1.7815-0.96484-2.6992-0.056215-5.278 2.6973-9.0378 5.3398-13.488 1.0304-1.7841 2.0592-3.5692 3.0859-5.3555 0.69295-1.176 0.69295-1.176 1.3999-2.3757 1.2672-2.1685 1.2672-2.1685 2.1392-5.0813 0.56977-0.68449 1.1395-1.369 1.7266-2.0742 3.0906-3.9774 5.2943-8.2963 7.6484-12.738 4.327-8.0531 8.7959-15.999 13.438-23.875 5.0246-8.5359 9.9034-17.14 14.688-25.812 4.7262-8.5659 9.5393-17.068 14.5-25.5 5.6547-9.6145 11.122-19.322 16.5-29.094 2.987-5.4191 6.0071-10.809 9.1484-16.14 0.56638-0.96591 1.1328-1.9318 1.7163-2.927 1.0628-1.8042 2.1355-3.6026 3.2197-5.394 0.46712-0.79511 0.93425-1.5902 1.4155-2.4094 0.4125-0.68699 0.825-1.374 1.25-2.0818 0.93598-2.4378 0.76207-3.5677-0.25-5.9534l-2.5-1.5c-2.5-1.5-2.5-1.5-3.0625-3.5625-0.14438-0.63938-0.28875-1.2788-0.4375-1.9375l-4-2c-0.10055-0.56074-0.20109-1.1215-0.30469-1.6992-1.0336-3.42-3.4041-5.5867-5.8203-8.1133-0.74443-0.79241-0.74443-0.79241-1.5039-1.6008-1.4492-1.5365-2.9089-3.0625-4.3711-4.5867-0.7193-0.76055-1.4386-1.5211-2.1797-2.3047-3.3979-3.6067-3.3979-3.6067-7.8203-5.6953-0.1169-0.73388-0.2338-1.4678-0.35425-2.2239-0.64911-2.7906-1.5741-4.713-2.9778-7.1941-3.2713-6.3555-4.7737-12.958-6.3555-19.895-0.29455-1.2291-0.5891-2.4582-0.89258-3.7246-4.7428-20.197-7.0387-37.322 3.7363-56.041 2.0465-3.2432 4.1923-6.3373 6.582-9.3359 1.1679-1.468 2.2212-3.0251 3.2617-4.5859 0.99-0.33 1.98-0.66 3-1 0.64969-0.7425 0.64969-0.7425 1.3125-1.5 2.362-2.0996 4.6089-2.051 7.6875-2.5l3-2v-1c1.1079 0.017402 1.1079 0.017402 2.2383 0.035156 5.0223 0.044671 9.9535 0.010526 14.949-0.53516 15.24-1.5306 34.524-2.4751 48.812 3.5v2l2.6875 0.875c5.2226 1.7737 10.251 3.9418 15.312 6.125v2c1.709-0.11556 3.4172-0.24293 5.125-0.375 0.95133-0.069609 1.9027-0.13922 2.8828-0.21094 5.5888-0.77338 8.6811-1.6362 12.168-6.1875 1.0615-1.5229 2.1067-3.0572 3.1367-4.6016 0.53689-0.76828 1.0738-1.5366 1.627-2.3281 2.863-3.9673 2.863-3.9673 4.53-8.4868 0.17507-0.59732 0.35014-1.1946 0.53052-1.8101 0.99-0.33 1.98-0.66 3-1 1.4155-1.7894 1.4155-1.7894 2.625-3.9375 0.63809-1.0654 0.63809-1.0654 1.2891-2.1523 0.73009-1.2842 1.4253-2.5889 2.0859-3.9102 0.6252-0.5891 1.2504-1.1782 1.8945-1.7852 5.6893-5.9849 7.9915-15.065 8.3906-23.145-0.19537-5.5542-1.5616-10.967-2.7227-16.383-4.0966-19.108-4.6142-40.295 5.9727-57.594 6.8036-9.7246 6.8036-9.7246 11.277-10.719 1.0519-0.12375 2.1038-0.2475 3.1875-0.375 1.613-0.4973 1.613-0.4973 3.2585-1.0046 3.7638-1.0013 6.9081-1.268 10.792-1.2961zm-5.0508 19.301v2l-2.75 0.75c-3.5541 1.367-5.139 2.0835-7.25 5.25-0.84458 18.562 0.9334 42.897 13 58 0.78504 0.75023 0.78504 0.75023 1.5859 1.5156 1.4141 1.4844 1.4141 1.4844 2.4141 4.4844 4.5862 6.6041 9.5173 13.116 15 19h2l0.1875 1.75c1.3322 3.6891 4.3907 5.5391 7.8125 7.25 0.13664 0.61617 0.27328 1.2323 0.41406 1.8672 0.73828 2.6873 1.8119 3.5259 3.9609 5.2578 0.60586 0.49758 1.2117 0.99516 1.8359 1.5078 1.5505 1.1849 3.1654 2.2847 4.7891 3.3672 0.33711 1.3324 0.67025 2.6658 1 4 1.3692 1.5533 1.3692 1.5533 3.125 2.875 0.62777 0.51305 1.2555 1.0261 1.9023 1.5547 0.97646 0.7773 0.97646 0.7773 1.9727 1.5703 6.8603 5.5054 6.8603 5.5054 9.25 9.3125 1.5305 2.9601 1.5305 2.9601 4.75 3.6875l2 2c1.6596 0.68403 3.3274 1.3485 5 2 1.6792 0.89344 3.3454 1.8117 5 2.75 5.3503 2.974 10.84 5.4998 16.445 7.9531 2.5547 1.2969 2.5547 1.2969 3.5547 3.2969 2.0868 0.39533 2.0868 0.39533 4.5625 0.5 4.6859 0.37083 8.9132 1.2433 13.438 2.5v2c11.555 3.1335 22.35 2.2496 34 0h1c8.5677-9.7132 10.497-26.132 10.246-38.621-1.521-20.883-11.375-37.425-23.621-53.691-0.41669-0.55768-0.83338-1.1154-1.2627-1.6899-2.069-2.6735-3.0795-3.9033-6.3623-4.9976-0.34333-1.3308-0.67418-2.6648-1-4-5.0006-7.7686-13.05-20.017-22-23l-2-2c-1.3215-0.68984-2.6565-1.354-4-2-1.4079-0.79144-2.804-1.6043-4.1875-2.4375-0.6948-0.41121-1.3896-0.82242-2.1055-1.2461-1.707-1.3164-1.707-1.3164-2.707-4.3164-1.98-0.33-3.96-0.66-6-1l-1-3-2.3125-0.1875c-5.2527-1.1574-9.8597-3.4845-14.688-5.8125v-2c-4.0341-1.952-7.703-2.3644-12.109-2.6562l-1.8906-0.34375-1-2c-2.8181-0.79194-5.5775-1.4639-8.4375-2.0625-1.2412-0.26442-1.2412-0.26442-2.5076-0.53418-8.6407-1.7966-16.931-2.4816-25.742-2.5908-0.71358-0.013213-1.4272-0.026426-2.1624-0.040039-4.7489-0.0066272-8.6398 0.73196-13.15 2.2275zm-7 87c-0.59812 0.76312-1.1962 1.5262-1.8125 2.3125-2.6749 3.2863-5.4478 5.9236-8.75 8.5625-2.9852 2.5241-4.1103 4.4277-5.4375 8.125-0.69223 0.63938-1.3845 1.2788-2.0977 1.9375-4.2811 4.1562-7.1195 9.4472-10.215 14.5-0.67007 1.0853-1.3401 2.1706-2.0305 3.2888-4.7168 7.6695-9.3771 15.35-13.657 23.274-0.72993 1.3455-0.72993 1.3455-1.4746 2.7183-1.6669 3.0873-3.3173 6.183-4.9629 9.2817-0.53327 0.99266-1.0665 1.9853-1.616 3.0081-0.74504 1.4191-0.74504 1.4191-1.5051 2.8669-0.66987 1.2646-0.66987 1.2646-1.3533 2.5547-1.2078 2.8531-1.691 5.5067-2.0881 8.5703-1.98-0.33-3.96-0.66-6-1v-2l-5-1-2-15h-3c-0.45375-0.78375-0.9075-1.5675-1.375-2.375-1.947-3.1452-3.2766-3.3372-6.625-4.625-0.68268-1.3252-1.3507-2.6581-2-4-1.3303-0.34541-2.6642-0.67682-4-1-1.299-0.74457-2.5698-1.5398-3.8125-2.375-2.6485-1.721-5.1936-3.1363-8.125-4.3125-3.0625-1.3125-3.0625-1.3125-4.0625-3.3125-11.98-4.2743-25.504-5.9845-38-3v2h-7v2c-1.2474 0.65093-2.498 1.2955-3.75 1.9375-1.0441 0.53947-1.0441 0.53947-2.1094 1.0898-2.1406 0.97266-2.1406 0.97266-4.2734 1.4375-3.3164 0.95052-4.2634 3.6484-5.8672 6.5352-6.3031 17.17-3.0334 43.379 3.8374 60.029 0.66992 1.3501 1.4065 2.6669 2.1626 3.9707h2l0.25 1.875c0.53811 2.3085 0.53811 2.3085 2.75 3.125l2 1c0.21656 0.92812 0.21656 0.92812 0.4375 1.875 1.0713 4.047 5.2379 5.9086 8.5625 8.125 0.1173 0.58523 0.23461 1.1705 0.35547 1.7734 0.98829 3.4141 3.4695 5.4444 5.957 7.8516 0.72993 0.73477 0.72993 0.73477 1.4746 1.4844 2.5881 2.5498 4.9475 4.345 8.2129 5.8906 1.344 1.9928 2.6754 3.9942 4 6 4.6551 5.344 4.6551 5.344 11 8 1 1.6667 2 3.3333 3 5 1.3259 0.36162 2.6594 0.69728 4 1 0.69938 1.3165 1.3673 2.6502 2 4 0.99 0.33 1.98 0.66 3 1l2 2 2 1 2 2c1.6642 0.67292 3.3312 1.3388 5 2 1.6111 0.93285 3.1958 1.9127 4.75 2.9375 0.77859 0.50402 1.5572 1.008 2.3594 1.5273 1.8906 1.5352 1.8906 1.5352 2.8906 4.5352 1.98 0.33 3.96 0.66 6 1l1 3 3.3125 0.3125c3.8926 0.72574 4.1706 1.0612 6.6875 3.6875l2.8125 0.25c4.0809 0.96021 5.1032 2.6409 7.6211 5.8359 4.1672 5.0921 8.2579 8.0349 14.566 9.9141 0.7902 0.65227 1.5804 1.3045 2.3945 1.9766 4.7965 3.2754 10.612 2.9673 16.23 3.2734 1.1125 0.077344 2.2249 0.15469 3.3711 0.23438 14.261 0.96989 14.261 0.96989 28.441-0.35938 1.4212-0.24363 1.4212-0.24363 2.8711-0.49219 2.7078-0.63667 5.141-1.5312 7.6914-2.6328v-2c2.0469-1.4727 2.0469-1.4727 4.75-3.0625 0.88172-0.52723 1.7634-1.0545 2.6719-1.5977 2.5781-1.3398 2.5781-1.3398 4.8438-1.8359 0.57234-0.16629 1.1447-0.33258 1.7344-0.50391l1-3c0.61617-0.1418 1.2323-0.28359 1.8672-0.42969 2.9496-0.78871 3.6202-2.1661 5.2578-4.6953 0.49758-0.74508 0.99516-1.4902 1.5078-2.2578 5.7356-10.98 4.3795-24.625 0.97656-36.141-3.5726-10.388-8.2068-20.422-12.609-30.477-1.0053-2.3311-2.0036-4.665-3-7-3.4431 3.9937-5.8464 8.1611-8.25 12.812-0.36352 0.69287-0.72703 1.3857-1.1016 2.0996-0.88761 1.6935-1.7687 3.3903-2.6484 5.0879-1.155-0.45375-2.31-0.9075-3.5-1.375-4.1126-1.5496-8.2213-2.6317-12.5-3.625 1.6597-6.2492 3.5918-11.503 7-17 0.29004-0.63938 0.58008-1.2788 0.87891-1.9375 1.3521-2.4875 2.9885-4.1951 4.9961-6.1875 1.0171-1.0248 1.0171-1.0248 2.0547-2.0703 1.9693-1.7166 3.7435-2.6706 6.0703-3.8047 1.9713-2.285 1.9713-2.285 3-5-1.3112-3.7577-3.9649-6.3619-6.625-9.25-0.81727-0.89203-1.6345-1.7841-2.4766-2.7031-0.62648-0.67547-1.253-1.3509-1.8984-2.0469 1.314-3.43 2.6035-6.1867 5-9 6.7516 0 12.398 2.5705 18 6h3c1.2906-2.8269 1.2906-2.8269 0.29297-4.9023-0.54721-1.0074-0.54721-1.0074-1.1055-2.0352-0.35707-0.66902-0.71414-1.338-1.082-2.0273-0.54721-1.0074-0.54721-1.0074-1.1055-2.0352-0.67155-1.3309-1.3389-2.6639-2-4l-1-2c-0.14375-3.3782-0.075363-5.7739 1-9 9.3439 1.1746 9.3439 1.1746 11.938 4.4375 0.35062 0.84562 0.70125 1.6912 1.0625 2.5625 1.5825 1.7515 1.5825 1.7515 3 3 4.8769-1.3547 6.4859-3.7168 9-8-1.7345-4.6832-5.5924-7.7962-10-10-0.13664-0.61617-0.27328-1.2323-0.41406-1.8672-0.73828-2.6873-1.8119-3.5259-3.9609-5.2578-0.90879-0.74637-0.90879-0.74637-1.8359-1.5078-1.5505-1.1849-3.1654-2.2847-4.7891-3.3672-0.34443-1.3305-0.67676-2.6642-1-4-1.3731-1.858-1.3731-1.858-3.1328-3.6094-0.64195-0.67289-1.2839-1.3458-1.9453-2.0391-0.67547-0.69352-1.3509-1.387-2.0469-2.1016-1.3165-1.3685-2.6316-2.7383-3.9453-4.1094-0.98299-1.0254-0.98299-1.0254-1.9858-2.0715-2.4965-2.6574-4.8908-5.3945-7.2783-8.1497-2.5572-2.9471-5.1639-5.8467-7.7905-8.7319-0.7483-0.83821-0.7483-0.83821-1.5117-1.6934-2.9002-3.1766-5.6011-5.3356-9.3633-7.4941-0.625-2.125-0.625-2.125-1-4-0.99-0.33-1.98-0.66-3-1zm-65 42v1h6v-1h-6zm182 27 4 1zm-179 20 4 1zm-61 97c-8.1181 8.7411-15.655 19.309-21 30-1.2441 1.9205-2.4955 3.8363-3.75 5.75-11.59 17.905-21.935 36.593-32.25 55.25-0.54608 0.98629-1.0922 1.9726-1.6548 2.9888-6.381 11.545-12.596 23.139-18.345 35.011-0.39913 0.81759-0.79825 1.6352-1.2095 2.4775-1.271 2.6081-2.5324 5.2206-3.7905 7.835-0.39856 0.81944-0.79712 1.6389-1.2078 2.4832-0.36456 0.76482-0.72913 1.5296-1.1047 2.3176-0.32613 0.67845-0.65227 1.3569-0.98828 2.0559-0.87761 1.9713-0.87761 1.9713-0.69922 4.8308 2.8736 0.41747 2.8736 0.41747 6 0 1.663-2.4106 1.663-2.4106 3-5l1.9375-0.4375c3.3578-0.91577 4.294-3.71 6.0625-6.5625 2.3988-2.8985 2.3988-2.8985 4.8047-3.3047 3.059-0.96888 4.5884-2.7274 6.8203-5.0078 0.77602-0.77988 1.552-1.5598 2.3516-2.3633 2.0778-2.1659 2.0778-2.1659 3.0469-4.5547 0.32227-0.58395 0.64453-1.1679 0.97656-1.7695 1.3255-0.36326 2.6603-0.69329 4-1 2.1363-1.6989 2.1363-1.6989 4.125-3.8125 1.0248-1.0306 1.0248-1.0306 2.0703-2.082 1.6958-1.9784 2.6818-3.7788 3.8047-6.1055 1.314-0.70395 2.652-1.3635 4-2 4.4633-3.2184 4.4633-3.2184 7-8l1.8125-0.375c3.2119-0.9177 4.3033-2.9611 6.1875-5.625l1-2c0.58523-0.1173 1.1705-0.23461 1.7734-0.35547 3.1125-0.90099 4.5999-2.6564 6.8516-4.957 0.77602-0.77988 1.552-1.5598 2.3516-2.3633 2.0375-2.1395 2.0375-2.1395 2.9922-4.2969 1.478-2.9057 3.6015-4.8613 5.9062-7.1523 1.2955-1.3032 1.2955-1.3032 2.6172-2.6328 2.2085-1.9746 3.8946-2.9803 6.5078-4.2422 2.1493-1.7973 2.1493-1.7973 4.1875-3.875 0.6948-0.67805 1.3896-1.3561 2.1055-2.0547 1.7579-2.1321 2.1522-3.4275 2.707-6.0703 1.3153-0.70151 2.6512-1.3653 4-2 1.6373-1.9406 2.8661-3.7321 4-6l2.875-2.3125c2.779-2.2713 4.5991-4.3814 6.125-7.6875 0.43063-3.8459 0.43063-3.8459-1.375-5.625l-1.625-1.375-2-2-2-1-3-3-2-1-2-2-3-1-1-3c-0.99-0.33-1.98-0.66-3-1-1.0202-0.97939-2.0215-1.979-3-3l-2-1-2-2c-0.99-0.33-1.98-0.66-3-1l-1-3-4-1-1-3h-1zm39 31 1 2zm-126 120 1 2z"/>
<path transform="translate(216,240)" d="m0 0 2 3 2 1 0.3125 2.1875c0.95151 3.8926 2.9456 5.943 5.6875 8.8125l2 1c3.109 1.5545 4.7968 4.3561 7 7 3.2464 1.8818 6.7862 3.1943 10.25 4.625 1.0777 0.44602 2.1553 0.89203 3.2656 1.3516 0.81984 0.33773 1.6397 0.67547 2.4844 1.0234v2c0.67547 0.086367 1.3509 0.17273 2.0469 0.26172 4.2134 0.66367 7.214 1.171 10.641 3.8008 1.8094 4.0497 1.6968 7.7183 0.3125 11.938-4.7674 3.1782-9.4966 1.6983-15 1-0.75797-0.078633-1.5159-0.15727-2.2969-0.23828-5.1596-0.80498-9.4381-3.0365-13.953-5.5742-0.59087-0.33137-1.1817-0.66274-1.7905-1.0042-3.8856-2.287-6.8936-4.8946-9.9595-8.1833-1.8129-2.0653-1.8129-2.0653-3.9375-2.8125-2.6991-1.554-3.4778-3.5463-5.0625-6.1875l-4-2c-0.39044-1.3177-0.70955-2.6567-1-4l-2.0625-3.25c-2.4245-4.1296-2.5597-7.0056-1.9375-11.75 2.8141-4.8941 7.8237-5.1092 13-4z"/>
<path transform="translate(347,55)" d="m0 0c0.36369 1.602 0.71562 3.2067 1.0625 4.8125 0.29584 1.34 0.29584 1.34 0.59766 2.707 0.33984 2.4805 0.33984 2.4805-0.66016 5.4805-1.8701 1.1667-1.8701 1.1667-4.2969 2.2617-0.87656 0.39639-1.7531 0.79277-2.6562 1.2012-0.92297 0.40412-1.8459 0.80824-2.7969 1.2246-0.9075 0.41572-1.815 0.83145-2.75 1.2598-4.4011 1.9593-7.6127 3.3116-12.5 3.0527v2l-16 1c-3.4158-7.9703-3.4158-7.9703-2-12l0.625-2.0625c2.5755-3.6291 6.3464-5.5091 10.613-6.4102 1.9134-0.2413 3.8378-0.39234 5.7617-0.52734v-2c0.66645-0.048984 1.3329-0.097969 2.0195-0.14844 5.9951-0.48631 11.783-1.298 17.668-2.5469 2.3125-0.30469 2.3125-0.30469 5.3125 0.69531z"/>
<path transform="translate(363,67)" d="m0 0 4 1 0.25 1.75c0.58996 2.434 0.58996 2.434 2.875 4 1.875 2.25 1.875 2.25 1.9141 4.2812-0.2609 2.0026-0.643 3.9885-1.0391 5.9688l-2.3125 0.4375c-2.7692 0.52576-2.7692 0.52576-5.6875 1.5625-2.7422 0.91407-5.3552 1.5108-8.1875 2.0625-1.3516 0.2649-1.3516 0.2649-2.7305 0.53516-1.0306 0.19916-1.0306 0.19916-2.082 0.40234v2h-8c-4.5923-9.2255-4.5923-9.2255-4-15 5.3718-2.6288 10.045-3.6084 16-4v-2l9-1v-2z"/>
<path transform="translate(377,83)" d="m0 0 2 1c2.0435 0.54492 4.0313 1.0046 6.125 1.3125 1.875 0.6875 1.875 0.6875 3.0625 2.4375 2.1891 6.0622 2.1891 6.0622 1 9.8125l-1.1875 2.4375c-0.37125 0.76312-0.7425 1.5262-1.125 2.3125-0.28875 0.55688-0.5775 1.1138-0.875 1.6875-5.3163 0.43576-5.3163 0.43576-8 0-1.875-2.3125-1.875-2.3125-3-5l-2-3c0.36044-4.0549 1.0069-10.007 4-13z"/>
<path transform="translate(288,19)" d="m0 0h32v1h-32v-1z"/>
<path transform="translate(118,196)" d="m0 0h1v26h-1v-26z"/>
<path transform="translate(466,156)" d="m0 0h1v26h-1v-26z"/>
<path transform="translate(266,376)" d="m0 0h25v1h-25v-1z"/>
<path transform="translate(152,151)" d="m0 0h19v1h-19v-1z"/>
<path transform="translate(256,62)" d="m0 0h1v18h-1v-18z"/>
<path transform="translate(168,404)" d="m0 0c0 3 0 3-1.3125 4.6055-0.55688 0.52207-1.1138 1.0441-1.6875 1.582-0.55688 0.5298-1.1138 1.0596-1.6875 1.6055-0.43312 0.39832-0.86625 0.79664-1.3125 1.207l-2-1 8-8z"/>
<path transform="translate(261,354)" d="m0 0h17v1h-17v-1z"/>
<path transform="translate(413,217)" d="m0 0h17v1h-17v-1z"/>
<path transform="translate(147,174)" d="m0 0h17v1h-17v-1z"/>
<path transform="translate(408,62)" d="m0 0c3.8168 1.555 6.192 4.036 9 7l-1 2c-1.3363-1.3095-2.669-2.6227-4-3.9375-0.7425-0.7309-1.485-1.4618-2.25-2.2148-1.75-1.8477-1.75-1.8477-1.75-2.8477z"/>
<path transform="translate(333,308)" d="m0 0h1v16h-1v-16z"/>
<path transform="translate(297,39)" d="m0 0h16v1h-16v-1z"/>
<path transform="translate(414,198)" d="m0 0h13v1h-13v-1z"/>
<path transform="translate(448,157)" d="m0 0h1v11h-1v-11z"/>
<path transform="translate(313,40)" d="m0 0h11v1h-11v-1z"/>
<path transform="translate(57,492)" d="m0 0h10v1h-10v-1z"/>
<path transform="translate(142,152)" d="m0 0h10v1h-10v-1z"/>
<path transform="translate(284,72)" d="m0 0h1v10h-1v-10z"/>
<path transform="translate(351,305)" d="m0 0h1v9h-1v-9z"/>
<path transform="translate(249,290)" d="m0 0h9v1h-9v-1z"/>
<path transform="translate(281,48)" d="m0 0h1v9h-1v-9z"/>
<path transform="translate(253,353)" d="m0 0h8v1h-8v-1z"/>
<path transform="translate(351,321)" d="m0 0h1v8h-1v-8z"/>
<path transform="translate(201,244)" d="m0 0h1v8h-1v-8z"/>
<path transform="translate(95,200)" d="m0 0h1v8h-1v-8z"/>
<path transform="translate(171,152)" d="m0 0h8v1h-8v-1z"/>
<path transform="translate(283,64)" d="m0 0h1v8h-1v-8z"/>
<path transform="translate(320,20)" d="m0 0h8v1h-8v-1z"/>
<path transform="translate(259,375)" d="m0 0h7v1h-7v-1z"/>
<path transform="translate(292,354)" d="m0 0h7v1h-7v-1z"/>
<path transform="translate(96,209)" d="m0 0h1v7h-1v-7z"/>
<path transform="translate(465,148)" d="m0 0h1v7h-1v-7z"/>
<path transform="translate(282,57)" d="m0 0h1v7h-1v-7z"/>
<path transform="translate(182,389)" d="m0 0v3l-2 1 2-4z"/>
<path transform="translate(291,375)" d="m0 0h6v1h-6v-1z"/>
<path transform="translate(282,355)" d="m0 0h6v1h-6v-1z"/>
<path transform="translate(251,271)" d="m0 0h6v1h-6v-1z"/>
<path transform="translate(407,216)" d="m0 0h6v1h-6v-1z"/>
<path transform="translate(319,199)" d="m0 0h1v6h-1v-6z"/>
<path transform="translate(428,197)" d="m0 0h6v1h-6v-1z"/>
<path transform="translate(96,193)" d="m0 0h1v6h-1v-6z"/>
<path transform="translate(447,169)" d="m0 0h1v6h-1v-6z"/>
<path transform="translate(306,152)" d="m0 0 3 2-1 2-2-4z"/>
<path transform="translate(136,153)" d="m0 0h6v1h-6v-1z"/>
<path transform="translate(447,150)" d="m0 0h1v6h-1v-6z"/>
<path transform="translate(296,141)" d="m0 0 3 2-1 2-2-4z"/>
<path transform="translate(261,111)" d="m0 0h1v6h-1v-6z"/>
<path transform="translate(261,98)" d="m0 0h1v6h-1v-6z"/>
<path transform="translate(257,80)" d="m0 0h1v6h-1v-6z"/>
<path transform="translate(367,69)" d="m0 0 3 2-1 2-2-4z"/>
<path transform="translate(257,56)" d="m0 0h1v6h-1v-6z"/>
<path transform="translate(338,53)" d="m0 0h6v1h-6v-1z"/>
<path transform="translate(324,41)" d="m0 0h6v1h-6v-1z"/>
<path transform="translate(298,374)" d="m0 0h5v1h-5v-1z"/>
<path transform="translate(254,374)" d="m0 0h5v1h-5v-1z"/>
<path transform="translate(352,315)" d="m0 0h1v5h-1v-5z"/>
<path transform="translate(332,303)" d="m0 0h1v5h-1v-5z"/>
<path transform="translate(288,267)" d="m0 0h1v5h-1v-5z"/>
<path transform="translate(102,238)" d="m0 0h1v5h-1v-5z"/>
<path transform="translate(207,238)" d="m0 0h5v1h-5v-1z"/>
<path transform="translate(121,233)" d="m0 0h1v5h-1v-5z"/>
<path transform="translate(119,223)" d="m0 0h1v5h-1v-5z"/>
<path transform="translate(98,221)" d="m0 0h1v5h-1v-5z"/>
<path transform="translate(97,216)" d="m0 0h1v5h-1v-5z"/>
<path transform="translate(430,216)" d="m0 0h5v1h-5v-1z"/>
<path transform="translate(465,182)" d="m0 0h1v5h-1v-5z"/>
<path transform="translate(446,175)" d="m0 0h1v5h-1v-5z"/>
<path transform="translate(164,175)" d="m0 0h5v1h-5v-1z"/>
<path transform="translate(446,145)" d="m0 0h1v5h-1v-5z"/>
<path transform="translate(464,143)" d="m0 0h1v5h-1v-5z"/>
<path transform="translate(262,105)" d="m0 0h1v5h-1v-5z"/>
<path transform="translate(373,76)" d="m0 0h1v5h-1v-5z"/>
<path transform="translate(328,55)" d="m0 0h5v1h-5v-1z"/>
<path transform="translate(333,54)" d="m0 0h5v1h-5v-1z"/>
<path transform="translate(258,51)" d="m0 0h1v5h-1v-5z"/>
<path transform="translate(330,42)" d="m0 0h5v1h-5v-1z"/>
<path transform="translate(292,40)" d="m0 0h5v1h-5v-1z"/>
<path transform="translate(333,22)" d="m0 0h5v1h-5v-1z"/>
<path transform="translate(328,21)" d="m0 0h5v1h-5v-1z"/>
<path transform="translate(79,461)" d="m0 0 2 1h-3l1-1z"/>
<path transform="translate(303,373)" d="m0 0 4 1z"/>
<path transform="translate(299,353)" d="m0 0 4 1z"/>
<path transform="translate(193,351)" d="m0 0v3z"/>
<path transform="translate(327,336)" d="m0 0v3z"/>
<path transform="translate(350,329)" d="m0 0 1 4z"/>
<path transform="translate(332,324)" d="m0 0 1 4z"/>
<path transform="translate(350,301)" d="m0 0 1 4z"/>
<path transform="translate(331,299)" d="m0 0 1 4z"/>
<path transform="translate(128,280)" d="m0 0 2 1-1 2-1-3z"/>
<path transform="translate(266,279)" d="m0 0 1 4z"/>
<path transform="translate(257,272)" d="m0 0 4 1z"/>
<path transform="translate(316,262)" d="m0 0 1 3-2-1 1-2z"/>
<path transform="translate(123,243)" d="m0 0 1 4z"/>
<path transform="translate(122,239)" d="m0 0 1 4z"/>
<path transform="translate(101,234)" d="m0 0 1 4z"/>
<path transform="translate(306,231)" d="m0 0 2 1-1 2-1-3z"/>
<path transform="translate(100,230)" d="m0 0 1 4z"/>
<path transform="translate(120,229)" d="m0 0 1 4z"/>
<path transform="translate(99,226)" d="m0 0 1 4z"/>
<path transform="translate(347,226)" d="m0 0v3z"/>
<path transform="translate(403,215)" d="m0 0 4 1z"/>
<path transform="translate(398,214)" d="m0 0 4 1z"/>
<path transform="translate(338,203)" d="m0 0c0.99 0.33 1.98 0.66 3 1h-3v-1z"/>
<path transform="translate(342,202)" d="m0 0 2 1h-3l1-1z"/>
<path transform="translate(409,197)" d="m0 0 4 1z"/>
<path transform="translate(325,194)" d="m0 0 4 1z"/>
<path transform="translate(119,192)" d="m0 0 1 4z"/>
<path transform="translate(97,189)" d="m0 0 1 4z"/>
<path transform="translate(169,176)" d="m0 0 4 1z"/>
<path transform="translate(214,167)" d="m0 0 4 1z"/>
<path transform="translate(317,164)" d="m0 0 2 1-1 2-1-3z"/>
<path transform="translate(179,153)" d="m0 0 4 1z"/>
<path transform="translate(463,139)" d="m0 0 1 4z"/>
<path transform="translate(271,140)" d="m0 0v3z"/>
<path transform="translate(380,104)" d="m0 0 4 1z"/>
<path transform="translate(390,95)" d="m0 0 1 4z"/>
<path transform="translate(260,94)" d="m0 0 1 4z"/>
<path transform="translate(371,92)" d="m0 0 1 4z"/>
<path transform="translate(350,89)" d="m0 0 4 1z"/>
<path transform="translate(258,86)" d="m0 0 1 4z"/>
<path transform="translate(379,84)" d="m0 0 4 1z"/>
<path transform="translate(285,83)" d="m0 0 1 4z"/>
<path transform="translate(336,78)" d="m0 0 1 4z"/>
<path transform="translate(349,59)" d="m0 0 1 4z"/>
<path transform="translate(259,47)" d="m0 0 1 4z"/>
<path transform="translate(260,43)" d="m0 0 1 4z"/>
<path transform="translate(335,43)" d="m0 0 4 1z"/>
<path transform="translate(338,23)" d="m0 0 4 1z"/>
<path transform="translate(284,20)" d="m0 0 4 1z"/>
<path transform="translate(307,372)" d="m0 0c3 1 3 1 3 1z"/>
<path transform="translate(310,371)" d="m0 0c3 1 3 1 3 1z"/>
<path transform="translate(313,370)" d="m0 0c3 1 3 1 3 1z"/>
<path transform="translate(241,370)" d="m0 0c3 1 3 1 3 1z"/>
<path transform="translate(303,352)" d="m0 0c3 1 3 1 3 1z"/>
<path transform="translate(222,333)" d="m0 0c3 1 3 1 3 1z"/>
<path transform="translate(246,289)" d="m0 0c3 1 3 1 3 1z"/>
<path transform="translate(301,280)" d="m0 0c3 1 3 1 3 1z"/>
<path transform="translate(298,279)" d="m0 0c3 1 3 1 3 1z"/>
<path transform="translate(294,278)" d="m0 0c3 1 3 1 3 1z"/>
<path transform="translate(291,277)" d="m0 0c3 1 3 1 3 1z"/>
<path transform="translate(435,215)" d="m0 0c3 1 3 1 3 1z"/>
<path transform="translate(395,213)" d="m0 0c3 1 3 1 3 1z"/>
<path transform="translate(392,212)" d="m0 0c3 1 3 1 3 1z"/>
<path transform="translate(379,208)" d="m0 0c3 1 3 1 3 1z"/>
<path transform="translate(376,207)" d="m0 0c3 1 3 1 3 1z"/>
<path transform="translate(387,191)" d="m0 0c3 1 3 1 3 1z"/>
<path transform="translate(177,178)" d="m0 0c3 1 3 1 3 1z"/>
<path transform="translate(174,177)" d="m0 0c3 1 3 1 3 1z"/>
<path transform="translate(127,155)" d="m0 0c3 1 3 1 3 1z"/>
<path transform="translate(354,88)" d="m0 0c3 1 3 1 3 1z"/>
<path transform="translate(357,87)" d="m0 0c3 1 3 1 3 1z"/>
<path transform="translate(363,85)" d="m0 0c3 1 3 1 3 1z"/>
<path transform="translate(311,81)" d="m0 0c3 1 3 1 3 1z"/>
<path transform="translate(315,80)" d="m0 0c3 1 3 1 3 1z"/>
<path transform="translate(348,72)" d="m0 0c3 1 3 1 3 1z"/>
<path transform="translate(351,71)" d="m0 0c3 1 3 1 3 1z"/>
<path transform="translate(357,69)" d="m0 0c3 1 3 1 3 1z"/>
<path transform="translate(360,68)" d="m0 0c3 1 3 1 3 1z"/>
<path transform="translate(319,58)" d="m0 0c3 1 3 1 3 1z"/>
<path transform="translate(325,56)" d="m0 0c3 1 3 1 3 1z"/>
<path transform="translate(352,48)" d="m0 0c3 1 3 1 3 1z"/>
<path transform="translate(349,47)" d="m0 0c3 1 3 1 3 1z"/>
<path transform="translate(354,28)" d="m0 0c3 1 3 1 3 1z"/>
<path transform="translate(351,27)" d="m0 0c3 1 3 1 3 1z"/>
<path transform="translate(348,26)" d="m0 0c3 1 3 1 3 1z"/>
<path transform="translate(345,25)" d="m0 0c3 1 3 1 3 1z"/>
<path transform="translate(342,24)" d="m0 0c3 1 3 1 3 1z"/>
<path transform="translate(281,21)" d="m0 0c3 1 3 1 3 1z"/>
<path transform="translate(55,491)" d="m0 0 2 1z"/>
<path transform="translate(316,369)" d="m0 0 2 1z"/>
<path transform="translate(234,367)" d="m0 0 2 1z"/>
<path transform="translate(322,366)" d="m0 0 2 1z"/>
<path transform="translate(232,366)" d="m0 0 2 1z"/>
<path transform="translate(224,362)" d="m0 0 2 1z"/>
<path transform="translate(225,334)" d="m0 0 2 1z"/>
<path transform="translate(212,329)" d="m0 0 2 1z"/>
<path transform="translate(205,325)" d="m0 0 2 1z"/>
<path transform="translate(244,288)" d="m0 0 2 1z"/>
<path transform="translate(289,276)" d="m0 0 2 1z"/>
<path transform="translate(212,239)" d="m0 0 2 1z"/>
<path transform="translate(205,239)" d="m0 0 2 1z"/>
<path transform="translate(312,215)" d="m0 0 2 1z"/>
<path transform="translate(439,214)" d="m0 0 2 1z"/>
<path transform="translate(200,160)" d="m0 0 2 1z"/>
<path transform="translate(198,159)" d="m0 0 2 1z"/>
<path transform="translate(196,158)" d="m0 0 2 1z"/>
<path transform="translate(123,157)" d="m0 0 2 1z"/>
<path transform="translate(125,156)" d="m0 0 2 1z"/>
<path transform="translate(283,128)" d="m0 0 2 1z"/>
<path transform="translate(309,80)" d="m0 0 2 1z"/>
<path transform="translate(318,79)" d="m0 0 2 1z"/>
<path transform="translate(323,77)" d="m0 0 2 1z"/>
<path transform="translate(379,61)" d="m0 0 2 1z"/>
<path transform="translate(317,59)" d="m0 0 2 1z"/>
<path transform="translate(372,57)" d="m0 0 2 1z"/>
<path transform="translate(357,29)" d="m0 0 2 1z"/>
<path transform="translate(277,23)" d="m0 0 2 1z"/>
<path transform="translate(279,22)" d="m0 0 2 1z"/>
</svg>
